<svg width="293" height="52" viewBox="0 0 293 52" fill="none" xmlns="http://www.w3.org/2000/svg">
<rect width="52" height="52" rx="10" fill="#B73058"/>
<rect y="8" width="52" height="44" rx="10" fill="#FF477E"/>
<path d="M36.88 21.6667C35.4666 20.2496 33.593 19.3847 31.5977 19.2282C29.6025 19.0718 27.617 19.634 26 20.8134C24.3035 19.5515 22.1919 18.9794 20.0905 19.2121C17.9891 19.4448 16.0539 20.4651 14.6746 22.0675C13.2953 23.6699 12.5744 25.7354 12.657 27.848C12.7397 29.9607 13.6197 31.9636 15.12 33.4534L23.4 41.7467C24.0933 42.4291 25.0271 42.8115 26 42.8115C26.9728 42.8115 27.9066 42.4291 28.6 41.7467L36.88 33.4534C38.4367 31.887 39.3105 29.7684 39.3105 27.56C39.3105 25.3517 38.4367 23.233 36.88 21.6667ZM35 31.6133L26.72 39.8934C26.6257 39.9885 26.5136 40.064 26.39 40.1156C26.2664 40.1671 26.1339 40.1936 26 40.1936C25.8661 40.1936 25.7335 40.1671 25.6099 40.1156C25.4863 40.064 25.3742 39.9885 25.28 39.8934L17 31.5734C15.9543 30.5045 15.3688 29.0686 15.3688 27.5734C15.3688 26.0781 15.9543 24.6422 17 23.5734C18.0655 22.5213 19.5026 21.9314 21 21.9314C22.4973 21.9314 23.9344 22.5213 25 23.5734C25.1239 23.6983 25.2714 23.7975 25.4339 23.8652C25.5963 23.9329 25.7706 23.9677 25.9466 23.9677C26.1226 23.9677 26.2969 23.9329 26.4594 23.8652C26.6219 23.7975 26.7693 23.6983 26.8933 23.5734C27.9588 22.5213 29.3959 21.9314 30.8933 21.9314C32.3907 21.9314 33.8278 22.5213 34.8933 23.5734C35.9533 24.6282 36.5581 26.0563 36.578 27.5516C36.598 29.0469 36.0315 30.4906 35 31.5734V31.6133Z" fill="white"/>
<path d="M91.7275 18.26L86.8835 38H80.1355L77.4195 25.904L74.6475 38H67.8995L63.1115 18.26H69.0475L71.3435 31.756L74.4515 18.26H80.4715L83.4955 31.644L85.7915 18.26H91.7275ZM109.064 29.964C109.064 30.3933 109.036 30.8227 108.98 31.252H98.5923C98.6483 32.1107 98.8816 32.7547 99.2923 33.184C99.7216 33.5947 100.263 33.8 100.916 33.8C101.831 33.8 102.484 33.3893 102.876 32.568H108.728C108.486 33.6507 108.01 34.6213 107.3 35.48C106.61 36.32 105.732 36.9827 104.668 37.468C103.604 37.9533 102.428 38.196 101.14 38.196C99.5909 38.196 98.2096 37.8693 96.9963 37.216C95.8016 36.5627 94.8589 35.6293 94.1683 34.416C93.4963 33.2027 93.1603 31.7747 93.1603 30.132C93.1603 28.4893 93.4963 27.0707 94.1683 25.876C94.8403 24.6627 95.7736 23.7293 96.9683 23.076C98.1816 22.4227 99.5723 22.096 101.14 22.096C102.69 22.096 104.062 22.4133 105.256 23.048C106.451 23.6827 107.384 24.5973 108.056 25.792C108.728 26.968 109.064 28.3587 109.064 29.964ZM103.464 28.592C103.464 27.92 103.24 27.3973 102.792 27.024C102.344 26.632 101.784 26.436 101.112 26.436C100.44 26.436 99.8896 26.6227 99.4603 26.996C99.0309 27.3507 98.7509 27.8827 98.6203 28.592H103.464ZM126.318 29.964C126.318 30.3933 126.29 30.8227 126.234 31.252H115.846C115.902 32.1107 116.136 32.7547 116.546 33.184C116.976 33.5947 117.517 33.8 118.17 33.8C119.085 33.8 119.738 33.3893 120.13 32.568H125.982C125.74 33.6507 125.264 34.6213 124.554 35.48C123.864 36.32 122.986 36.9827 121.922 37.468C120.858 37.9533 119.682 38.196 118.394 38.196C116.845 38.196 115.464 37.8693 114.25 37.216C113.056 36.5627 112.113 35.6293 111.422 34.416C110.75 33.2027 110.414 31.7747 110.414 30.132C110.414 28.4893 110.75 27.0707 111.422 25.876C112.094 24.6627 113.028 23.7293 114.222 23.076C115.436 22.4227 116.826 22.096 118.394 22.096C119.944 22.096 121.316 22.4133 122.51 23.048C123.705 23.6827 124.638 24.5973 125.31 25.792C125.982 26.968 126.318 28.3587 126.318 29.964ZM120.718 28.592C120.718 27.92 120.494 27.3973 120.046 27.024C119.598 26.632 119.038 26.436 118.366 26.436C117.694 26.436 117.144 26.6227 116.714 26.996C116.285 27.3507 116.005 27.8827 115.874 28.592H120.718ZM127.668 30.132C127.668 28.508 127.957 27.0893 128.536 25.876C129.133 24.6627 129.945 23.7293 130.972 23.076C131.999 22.4227 133.137 22.096 134.388 22.096C135.396 22.096 136.292 22.3107 137.076 22.74C137.879 23.1507 138.504 23.72 138.952 24.448V17.28H144.468V38H138.952V35.816C138.523 36.544 137.916 37.1227 137.132 37.552C136.348 37.9813 135.424 38.196 134.36 38.196C133.109 38.196 131.971 37.8693 130.944 37.216C129.936 36.5627 129.133 35.6293 128.536 34.416C127.957 33.184 127.668 31.756 127.668 30.132ZM138.98 30.132C138.98 29.124 138.7 28.3307 138.14 27.752C137.599 27.1733 136.927 26.884 136.124 26.884C135.303 26.884 134.621 27.1733 134.08 27.752C133.539 28.312 133.268 29.1053 133.268 30.132C133.268 31.14 133.539 31.9427 134.08 32.54C134.621 33.1187 135.303 33.408 136.124 33.408C136.927 33.408 137.599 33.1187 138.14 32.54C138.7 31.9613 138.98 31.1587 138.98 30.132ZM150.367 20.836C149.397 20.836 148.613 20.5747 148.015 20.052C147.437 19.5107 147.147 18.8387 147.147 18.036C147.147 17.2147 147.437 16.5333 148.015 15.992C148.613 15.4507 149.397 15.18 150.367 15.18C151.319 15.18 152.085 15.4507 152.663 15.992C153.261 16.5333 153.559 17.2147 153.559 18.036C153.559 18.8387 153.261 19.5107 152.663 20.052C152.085 20.5747 151.319 20.836 150.367 20.836ZM153.083 22.292V38H147.595V22.292H153.083ZM166.485 22.152C168.295 22.152 169.733 22.7587 170.797 23.972C171.861 25.1667 172.393 26.7907 172.393 28.844V38H166.905V29.572C166.905 28.676 166.671 27.976 166.205 27.472C165.738 26.9493 165.113 26.688 164.329 26.688C163.507 26.688 162.863 26.9493 162.397 27.472C161.93 27.976 161.697 28.676 161.697 29.572V38H156.209V22.292H161.697V24.532C162.182 23.8227 162.835 23.2533 163.657 22.824C164.478 22.376 165.421 22.152 166.485 22.152ZM181.2 22.096C182.264 22.096 183.188 22.3107 183.972 22.74C184.775 23.1693 185.391 23.748 185.82 24.476V22.292H191.308V37.832C191.308 39.3067 191.028 40.632 190.468 41.808C189.908 43.0027 189.031 43.9547 187.836 44.664C186.66 45.3733 185.167 45.728 183.356 45.728C180.929 45.728 178.988 45.1587 177.532 44.02C176.076 42.8813 175.245 41.332 175.04 39.372H180.444C180.556 39.876 180.836 40.268 181.284 40.548C181.732 40.828 182.311 40.968 183.02 40.968C184.887 40.968 185.82 39.9227 185.82 37.832V35.816C185.391 36.544 184.775 37.1227 183.972 37.552C183.188 37.9813 182.264 38.196 181.2 38.196C179.949 38.196 178.811 37.8693 177.784 37.216C176.776 36.5627 175.973 35.6293 175.376 34.416C174.797 33.184 174.508 31.756 174.508 30.132C174.508 28.508 174.797 27.0893 175.376 25.876C175.973 24.6627 176.776 23.7293 177.784 23.076C178.811 22.4227 179.949 22.096 181.2 22.096ZM185.82 30.132C185.82 29.124 185.54 28.3307 184.98 27.752C184.439 27.1733 183.767 26.884 182.964 26.884C182.143 26.884 181.461 27.1733 180.92 27.752C180.379 28.312 180.108 29.1053 180.108 30.132C180.108 31.14 180.379 31.9427 180.92 32.54C181.461 33.1187 182.143 33.408 182.964 33.408C183.767 33.408 184.439 33.1187 184.98 32.54C185.54 31.9613 185.82 31.1587 185.82 30.132ZM215.391 24.84C215.391 26.0347 215.111 27.1267 214.551 28.116C214.009 29.0867 213.179 29.8707 212.059 30.468C210.957 31.0467 209.604 31.336 207.999 31.336H205.283V38H199.795V18.26H207.999C209.585 18.26 210.929 18.54 212.031 19.1C213.151 19.66 213.991 20.4347 214.551 21.424C215.111 22.4133 215.391 23.552 215.391 24.84ZM207.467 26.968C209.016 26.968 209.791 26.2587 209.791 24.84C209.791 23.4027 209.016 22.684 207.467 22.684H205.283V26.968H207.467ZM223.083 17.28V38H217.595V17.28H223.083ZM225.313 30.132C225.313 28.508 225.602 27.0893 226.181 25.876C226.778 24.6627 227.581 23.7293 228.589 23.076C229.615 22.4227 230.754 22.096 232.005 22.096C233.087 22.096 234.021 22.3107 234.805 22.74C235.589 23.1693 236.195 23.748 236.625 24.476V22.292H242.113V38H236.625V35.816C236.195 36.544 235.579 37.1227 234.777 37.552C233.993 37.9813 233.069 38.196 232.005 38.196C230.754 38.196 229.615 37.8693 228.589 37.216C227.581 36.5627 226.778 35.6293 226.181 34.416C225.602 33.184 225.313 31.756 225.313 30.132ZM236.625 30.132C236.625 29.124 236.345 28.3307 235.785 27.752C235.243 27.1733 234.571 26.884 233.769 26.884C232.947 26.884 232.266 27.1733 231.725 27.752C231.183 28.312 230.913 29.1053 230.913 30.132C230.913 31.14 231.183 31.9427 231.725 32.54C232.266 33.1187 232.947 33.408 233.769 33.408C234.571 33.408 235.243 33.1187 235.785 32.54C236.345 31.9613 236.625 31.1587 236.625 30.132ZM255.516 22.152C257.327 22.152 258.764 22.7587 259.828 23.972C260.892 25.1667 261.424 26.7907 261.424 28.844V38H255.936V29.572C255.936 28.676 255.703 27.976 255.236 27.472C254.769 26.9493 254.144 26.688 253.36 26.688C252.539 26.688 251.895 26.9493 251.428 27.472C250.961 27.976 250.728 28.676 250.728 29.572V38H245.24V22.292H250.728V24.532C251.213 23.8227 251.867 23.2533 252.688 22.824C253.509 22.376 254.452 22.152 255.516 22.152ZM279.443 29.964C279.443 30.3933 279.415 30.8227 279.359 31.252H268.971C269.027 32.1107 269.261 32.7547 269.671 33.184C270.101 33.5947 270.642 33.8 271.295 33.8C272.21 33.8 272.863 33.3893 273.255 32.568H279.107C278.865 33.6507 278.389 34.6213 277.679 35.48C276.989 36.32 276.111 36.9827 275.047 37.468C273.983 37.9533 272.807 38.196 271.519 38.196C269.97 38.196 268.589 37.8693 267.375 37.216C266.181 36.5627 265.238 35.6293 264.547 34.416C263.875 33.2027 263.539 31.7747 263.539 30.132C263.539 28.4893 263.875 27.0707 264.547 25.876C265.219 24.6627 266.153 23.7293 267.347 23.076C268.561 22.4227 269.951 22.096 271.519 22.096C273.069 22.096 274.441 22.4133 275.635 23.048C276.83 23.6827 277.763 24.5973 278.435 25.792C279.107 26.968 279.443 28.3587 279.443 29.964ZM273.843 28.592C273.843 27.92 273.619 27.3973 273.171 27.024C272.723 26.632 272.163 26.436 271.491 26.436C270.819 26.436 270.269 26.6227 269.839 26.996C269.41 27.3507 269.13 27.8827 268.999 28.592H273.843ZM287.177 25.064C287.793 24.168 288.54 23.4587 289.417 22.936C290.294 22.4133 291.237 22.152 292.245 22.152V28.004H290.705C289.51 28.004 288.624 28.2373 288.045 28.704C287.466 29.1707 287.177 29.9827 287.177 31.14V38H281.689V22.292H287.177V25.064Z" fill="#49516F"/>
</svg>
